<svg width="285" height="176" viewBox="0 0 285 176" fill="none" xmlns="http://www.w3.org/2000/svg">
<path d="M104.2 2.2L130.8 47.4C131.6 48.7333 132 50.5333 132 52.8C132 56.1333 131.2 59.2 129.6 62L69.4 166.4C67.8 169.067 65.5333 171.333 62.6 173.2C59.6667 175.067 56.8667 176 54.2 176H6.2C2.46667 176 0.6 174.4 0.6 171.2C0.6 169.733 1.13333 168.133 2.2 166.4L63.2 60.8L95 5.59999C97 2.13333 99.1333 0.399996 101.4 0.399996C102.6 0.399996 103.533 0.999996 104.2 2.2ZM212.148 70.4H279.348C283.082 70.4 284.948 72 284.948 75.2C284.948 76.6667 284.415 78.2667 283.348 80L233.548 166.4C232.082 169.067 229.815 171.333 226.748 173.2C223.815 175.067 221.015 176 218.348 176H83.9484C80.3484 176 78.5484 174.4 78.5484 171.2C78.5484 169.733 79.0151 168.133 79.9484 166.4L172.748 5.59999C174.748 2.13333 176.882 0.399996 179.148 0.399996C180.348 0.399996 181.282 0.999996 181.948 2.2L208.548 47.4C209.348 48.7333 209.748 50.5333 209.748 52.8C209.748 56.1333 208.948 59.2 207.348 62C206.682 63.3333 206.348 64.6 206.348 65.8C206.348 68.8667 208.282 70.4 212.148 70.4ZM171.948 156.8L210.748 89.6C211.682 87.8667 212.148 86.2667 212.148 84.8C212.148 81.6 210.282 80 206.548 80C204.015 80 201.215 80.9333 198.148 82.8C195.215 84.6667 193.015 86.9333 191.548 89.6L152.748 156.8C151.682 158.533 151.148 160.133 151.148 161.6C151.148 164.8 153.015 166.4 156.748 166.4C159.415 166.4 162.215 165.467 165.148 163.6C168.082 161.733 170.348 159.467 171.948 156.8Z" fill="black"/>
</svg>
